<?xml version="1.0" encoding="UTF-8" standalone="no"?>
<!DOCTYPE svg PUBLIC "-//W3C//DTD SVG 1.1//EN" "http://www.w3.org/Graphics/SVG/1.1/DTD/svg11.dtd">
<svg width="100%" height="100%" viewBox="0 0 509 314" version="1.1" xmlns="http://www.w3.org/2000/svg" xmlns:xlink="http://www.w3.org/1999/xlink" xml:space="preserve" xmlns:serif="http://www.serif.com/" style="fill-rule:evenodd;clip-rule:evenodd;">
    <g id="Artboard1" transform="matrix(1.00232,0,0,1,-875.808,-1296.16)">
        <rect x="873.785" y="1296.16" width="507.662" height="313.676" style="fill:none;"/>
        <clipPath id="_clip1">
            <rect x="873.785" y="1296.16" width="507.662" height="313.676"/>
        </clipPath>
        <g clip-path="url(#_clip1)">
            <g transform="matrix(0.997689,0,0,1,534.107,1033.52)">
                <path d="M500.291,438.342C500.291,448.557 498.473,456.001 494.838,460.675C490.768,465.609 484.016,468.076 474.583,468.076C465.493,468.076 459.044,465.654 455.235,460.805C451.86,456.565 450.171,449.813 450.171,440.548L450.171,435.816L465.101,446.667C465.337,448.613 465.685,450.208 466.143,451.456C467.614,455.266 470.599,457.168 475.102,457.168C480.035,457.168 483.195,454.919 484.58,450.418C485.36,448.08 485.748,443.794 485.748,437.563L485.748,372.511L500.291,372.511L500.291,438.342Z" style="fill-rule:nonzero;"/>
            </g>
            <g transform="matrix(0.997689,0,0,1,534.107,1031.7)">
                <path d="M562.967,444.574C562.967,461.454 553.746,469.894 535.31,469.894C530.289,469.894 526.002,469.374 522.456,468.335C518.905,467.297 516.027,465.653 513.821,463.401C511.612,461.153 510.011,458.252 509.017,454.702C508.021,451.153 507.522,446.869 507.522,441.847L507.522,440.809L522.456,440.809L522.456,441.847C522.456,447.215 523.19,451.241 524.663,453.923C526.566,457.386 530.117,459.117 535.31,459.117C543.88,459.117 548.165,454.659 548.165,445.743C548.165,441.155 546.475,437.303 543.101,434.187C542.494,433.582 541.196,432.628 539.204,431.33C537.212,430.032 534.572,428.388 531.285,426.396C523.148,421.377 517.867,417.524 515.444,414.84C511.029,410.165 508.822,404.193 508.822,396.921C508.822,388.786 511.419,382.553 516.613,378.224C521.46,374.416 528.039,372.511 536.347,372.511C553.488,372.511 562.058,380.346 562.058,396.013L562.058,399.388L547.516,399.388L547.516,397.051C547.516,387.962 543.576,383.418 535.7,383.418C531.804,383.418 528.818,384.521 526.741,386.729C524.663,388.936 523.624,391.987 523.624,395.883C523.624,400.557 525.702,404.627 529.855,408.088C532.105,409.474 534.314,410.859 536.479,412.243C538.642,413.629 540.849,415.057 543.101,416.528C550.545,421.289 555.306,424.838 557.384,427.175C561.105,431.417 562.967,437.217 562.967,444.574" style="fill-rule:nonzero;"/>
            </g>
            <g transform="matrix(0.997689,0,0,1,534.107,1059.75)">
                <path d="M599.931,407.959L597.204,407.959C586.47,407.959 581.106,412.246 581.106,420.814C581.106,428.432 583.786,432.24 589.154,432.24C596.338,432.24 599.931,426.656 599.931,415.492L599.931,407.959ZM600.972,440.16L600.71,432.24C596.815,438.214 591.187,441.199 583.83,441.199C578.203,441.199 573.962,439.339 571.106,435.616C568.594,432.327 567.342,427.784 567.342,421.984C567.342,412.461 570.629,406.099 577.208,402.897C581.708,400.558 589.284,399.389 599.931,399.389L599.931,396.273C599.931,391.513 599.627,388.353 599.022,386.795C597.896,383.593 595.472,381.99 591.751,381.99C585.778,381.99 582.792,385.107 582.792,391.339L582.792,392.118L569.418,392.118L569.418,391.209C569.418,379.178 577.08,373.161 592.4,373.161C600.016,373.161 605.47,374.979 608.76,378.614C611.702,381.905 613.177,387.488 613.177,395.364L613.177,418.738C613.177,423.759 613.24,428.042 613.37,431.591C613.5,435.141 613.65,437.997 613.824,440.16L600.972,440.16Z" style="fill-rule:nonzero;"/>
            </g>
            <g transform="matrix(0.997689,0,0,1,534.107,1031.83)">
                <path d="M662.035,399.129C662.035,394.11 660.865,390.539 658.529,388.417C656.194,386.297 652.512,385.236 647.492,385.236L637.364,385.236L637.364,415.23L645.155,415.23C651.475,415.23 655.844,414.148 658.271,411.984C660.779,409.734 662.035,405.447 662.035,399.129M662.165,468.076C661.817,466.173 661.581,464.179 661.452,462.101C661.32,460.026 661.213,457.818 661.127,455.481C661.039,453.059 660.976,450.872 660.93,448.924C660.886,446.976 660.824,445.181 660.737,443.534C660.39,436.524 659.481,432.022 658.01,430.032C656.277,427.522 652.297,426.266 646.065,426.266L637.364,426.266L637.364,468.076L622.821,468.076L622.821,374.199L650.219,374.199C659.136,374.199 665.627,375.715 669.696,378.744C674.542,382.379 676.966,388.786 676.966,397.96C676.966,410.6 671.815,418.173 661.517,420.683C666.795,421.117 670.43,422.935 672.424,426.137C673.981,428.561 674.977,433.278 675.409,440.288C675.494,442.974 675.624,447.301 675.798,453.272C676.06,458.38 676.577,463.316 677.357,468.076L662.165,468.076Z" style="fill-rule:nonzero;"/>
            </g>
            <g transform="matrix(0.997689,0,0,1,534.107,1031.7)">
                <path d="M740.725,446.425C739.078,462.071 729.818,469.893 712.946,469.893C700.306,469.893 691.954,465.523 687.888,456.779C685.031,450.547 683.601,438.731 683.601,421.332C683.601,404.626 684.985,393.113 687.756,386.793C691.913,377.272 700.568,372.511 713.725,372.511C723.074,372.511 729.825,374.74 733.98,379.197C738.136,383.657 740.215,390.474 740.215,399.648L740.215,405.524L725.433,394.87C724.253,387.322 720.221,383.547 713.335,383.547C706.843,383.547 702.601,386.881 700.611,393.545C699.138,398.479 698.405,407.439 698.405,420.423C698.405,435.14 699.138,444.963 700.611,449.897C702.601,456.045 706.671,459.116 712.816,459.116C718.095,459.116 721.86,457.213 724.112,453.403C725.67,450.721 726.451,446.479 726.451,440.678L726.451,435.961L740.725,446.425Z" style="fill-rule:nonzero;"/>
            </g>
            <g transform="matrix(0.997689,0,0,1,534.107,1103.34)">
                <path d="M600.534,425.67L421.457,425.67L421.457,345.1L435.926,355.616L435.926,411.2L590.018,411.2L600.534,425.67Z" style="fill:rgb(217,39,46);fill-rule:nonzero;"/>
            </g>
            <g transform="matrix(0.997689,0,0,1,534.107,961.503)">
                <path d="M769.094,496.79L754.626,486.275L754.626,430.284L601.099,430.284L590.583,415.816L769.094,415.816L769.094,496.79Z" style="fill:rgb(30,66,137);fill-rule:nonzero;"/>
            </g>
            <g transform="matrix(0,-1,-0.997689,0,1536.36,1452.77)">
                <path d="M-154.486,154.486L154.486,154.486" style="fill:none;stroke:rgb(217,39,46);stroke-width:0.78px;stroke-dasharray:2.35,1.57;"/>
            </g>
        </g>
    </g>
</svg>
